<svg width="32" height="32" viewBox="0 0 32 32" fill="none" xmlns="http://www.w3.org/2000/svg">
  <defs>
    <linearGradient id="dnaGradient" x1="0%" y1="0%" x2="100%" y2="100%">
      <stop offset="0%" style="stop-color:#4D9DE0;stop-opacity:1" />
      <stop offset="100%" style="stop-color:#88D498;stop-opacity:1" />
    </linearGradient>
  </defs>
  
  <!-- DNA Double Helix -->
  <path d="M8 4 C12 8, 20 8, 24 4 C20 12, 12 12, 8 16 C12 20, 20 20, 24 24 C20 28, 12 28, 8 32" 
        stroke="url(#dnaGradient)" stroke-width="2.5" fill="none" stroke-linecap="round"/>
  <path d="M24 4 C20 8, 12 8, 8 4 C12 12, 20 12, 24 16 C20 20, 12 20, 8 24 C12 28, 20 28, 24 32" 
        stroke="url(#dnaGradient)" stroke-width="2.5" fill="none" stroke-linecap="round"/>
  
  <!-- Base Pairs -->
  <line x1="10" y1="6" x2="22" y2="6" stroke="url(#dnaGradient)" stroke-width="1.5" opacity="0.7"/>
  <line x1="12" y1="10" x2="20" y2="10" stroke="url(#dnaGradient)" stroke-width="1.5" opacity="0.7"/>
  <line x1="10" y1="14" x2="22" y2="14" stroke="url(#dnaGradient)" stroke-width="1.5" opacity="0.7"/>
  <line x1="12" y1="18" x2="20" y2="18" stroke="url(#dnaGradient)" stroke-width="1.5" opacity="0.7"/>
  <line x1="10" y1="22" x2="22" y2="22" stroke="url(#dnaGradient)" stroke-width="1.5" opacity="0.7"/>
  <line x1="12" y1="26" x2="20" y2="26" stroke="url(#dnaGradient)" stroke-width="1.5" opacity="0.7"/>
</svg>